<svg xmlns="http://www.w3.org/2000/svg" width="32" height="32" fill="none"><rect width="32" height="32" rx="32" fill="#fff"/><path d="M13.512 24c-2.679-.015-4.895-5.484-4.895-8.27 0-4.549 3.413-5.545 4.728-5.545.593 0 1.226.233 1.784.44.39.143.794.291 1.019.291.134 0 .45-.126.73-.237.597-.237 1.339-.532 2.203-.532h.005c.646 0 2.602.142 3.778 1.908l.276.414-.397.3c-.566.427-1.6 1.206-1.6 2.75 0 1.83 1.17 2.533 1.733 2.872.248.15.505.303.505.64 0 .22-1.755 4.942-4.303 4.942-.624 0-1.065-.188-1.454-.353-.393-.168-.733-.312-1.293-.312-.285 0-.644.135-1.025.277-.52.194-1.108.415-1.776.415h-.018zM19.35 6c.067 2.393-1.645 4.054-3.354 3.95C15.714 8.04 17.705 6 19.35 6z" fill="#000"/></svg>