<svg width="26" height="23" fill="none" xmlns="http://www.w3.org/2000/svg"><path d="M12.677 20S2 13.248 2 7.466C2 4.414 4.591 2 7.643 2c2.136 0 4.118 1.123 5.034 2.894C13.594 3.128 15.576 2 17.711 2c3.052 0 5.643 2.409 5.643 5.466C23.354 13.248 12.677 20 12.677 20z" fill="#1120B1"/><path d="M24.482 5.26c-.387-.8-.909-1.6-1.557-2.264-.648-.666-1.427-1.197-2.336-1.465C19.684 1.134 18.775 1 17.735 1c-1.427 0-2.723.397-3.893 1.067-.262.134-.518.397-.78.531-.26-.134-.517-.397-.778-.53C11.124 1.397 9.822 1 8.395 1c-1.04 0-1.944.134-2.853.531-.91.397-1.688.8-2.337 1.465-.648.665-1.165 1.464-1.557 2.263C1.261 6.193 1 7.121 1 8.054c0 .933.13 1.862.517 2.795.262.8.78 1.599 1.297 2.532.909 1.33 2.205 2.66 3.763 4.125 2.592 2.398 5.19 3.996 5.32 3.996l.648.398c.261.134.648.134.91 0l.648-.398c.13-.134 2.723-1.732 5.32-3.996 1.558-1.464 2.854-2.795 3.763-4.125.518-.8 1.04-1.733 1.296-2.532.387-.933.518-1.862.518-2.795 0-.933-.13-1.861-.518-2.795zM12.937 19.77S3.08 13.515 3.08 8.054c0-2.795 2.336-5.058 5.19-5.058 2.074 0 3.762 1.067 4.667 2.795.91-1.599 2.593-2.795 4.668-2.795 2.853 0 5.19 2.263 5.19 5.058.13 5.46-9.858 11.716-9.858 11.716z" fill="#1120B1" stroke="#1120B1" stroke-miterlimit="10"/></svg>