<svg width="25" height="22" fill="none" xmlns="http://www.w3.org/2000/svg"><path d="M4.593 2.177H1.03a.75.75 0 110-1.499h3.563a.75.75 0 010 1.5zM20.72 17.928H8.532a.75.75 0 110-1.499h12.19a.75.75 0 11-.003 1.5zm2.814-12.75H5.717a.75.75 0 010-1.5h17.814a.75.75 0 01.002 1.5zM22.36 9.679H6.89a.75.75 0 110-1.499h15.47a.75.75 0 110 1.5zm-1.078 4.5H8.062a.75.75 0 110-1.5h13.22a.75.75 0 110 1.5zm-6.845-.094a.75.75 0 01-.75-.749V5.271a.75.75 0 111.5 0v8.063a.747.747 0 01-.75.752zm5.162-9.353l-.96 8.006a.752.752 0 01-1.491-.176l.962-8.007a.749.749 0 111.49.176zm4.642-.103l-2.163 8.72a.749.749 0 01-.908.548.749.749 0 01-.55-.909l2.164-8.72a.749.749 0 01.908-.548c.402.1.647.507.549.909zm-13.148 8.88a.75.75 0 01-.84-.648l-.965-7.534a.75.75 0 111.49-.191l.964 7.534a.752.752 0 01-.649.84zm-2.422 4.243a.751.751 0 01-.911-.546L3.905 1.76a.75.75 0 01.549-.909.75.75 0 01.91.546l3.853 15.445a.749.749 0 01-.546.909zm1.173 3.926a1.501 1.501 0 010-3 1.5 1.5 0 010 3zm9.187 0a1.501 1.501 0 11.004-2.999 1.501 1.501 0 01-.004 3z" fill="#08169E"/></svg>