<svg width="20" height="24" fill="none" xmlns="http://www.w3.org/2000/svg"><path d="M3.75 0h12.5C18.317 0 20 2.019 20 4.5v19c0 .21-.11.398-.275.47a.355.355 0 01-.142.03.39.39 0 01-.32-.18L15.222 18H3.75C1.683 18 0 15.981 0 13.5v-9C0 2.019 1.683 0 3.75 0zM.833 13.5c0 1.93 1.309 3.5 2.917 3.5h11.667c.123 0 .24.066.32.18l3.43 4.939V4.5c0-1.93-1.309-3.5-2.917-3.5H3.75C2.142 1 .833 2.57.833 4.5v9z" fill="url(#paint0_linear)"/><path d="M10 8.545V4v10" stroke="url(#paint1_linear)" stroke-width="2"/><path d="M10.454 9H15 5" stroke="url(#paint2_linear)" stroke-width="2"/><defs><linearGradient id="paint0_linear" x1="10" y1="0" x2="10" y2="24" gradientUnits="userSpaceOnUse"><stop stop-color="#1C257B"/><stop offset="1" stop-color="#20C6B2"/></linearGradient><linearGradient id="paint1_linear" x1="10.5" y1="4" x2="10.5" y2="14" gradientUnits="userSpaceOnUse"><stop stop-color="#1C257B"/><stop offset="1" stop-color="#20C6B2"/></linearGradient><linearGradient id="paint2_linear" x1="15" y1="9.5" x2="5" y2="9.5" gradientUnits="userSpaceOnUse"><stop stop-color="#1C257B"/><stop offset="1" stop-color="#20C6B2"/></linearGradient></defs></svg>