<svg width="24" height="24" fill="none" xmlns="http://www.w3.org/2000/svg"><path d="M10.354.042c1.742.16 3.556.854 4.88 1.859.437.333 1.162 1.043 1.527 1.487 2.038 2.515 2.612 6.223 1.44 9.343a11.082 11.082 0 01-.827 1.68l-.165.256 1.085 1.105c.598.609 2.062 2.091 3.254 3.293 2.5 2.526 2.452 2.463 2.452 3.202 0 .367-.02.478-.131.71-.457.975-1.67 1.322-2.56.738-.106-.067-1.63-1.579-3.385-3.35l-3.192-3.231-.54.304c-.91.517-2.019.903-3.181 1.11-.691.126-2.063.15-2.827.054-4.476-.565-7.677-3.82-8.149-8.286C-.038 9.601.006 8.38.133 7.66.57 5.188 1.855 3.127 3.859 1.698 4.404 1.306 5.586.718 6.277.49a10.405 10.405 0 014.077-.45zm-2.32 2.235a7.623 7.623 0 00-4.17 2.545C2.366 6.603 1.826 8.8 2.356 10.934c.267 1.087.759 2.024 1.532 2.94 1.275 1.507 3.021 2.44 4.919 2.628 1.985.193 4.057-.585 5.609-2.105.666-.657 1.08-1.222 1.484-2.028.574-1.145.754-1.98.71-3.26-.024-.825-.088-1.202-.307-1.858-.37-1.13-1.021-2.134-1.94-3.023-1.154-1.1-2.38-1.729-3.912-2.004-.491-.087-1.936-.058-2.418.053z" fill="#071284"/></svg>