<svg xmlns="http://www.w3.org/2000/svg" width="39" height="13" fill="none"><path d="M14.469.282L9.48 12.187H6.225l-2.456-9.5c-.148-.586-.277-.8-.73-1.046C2.293 1.238 1.074.862 0 .628L.072.275h5.24a1.436 1.436 0 011.412 1.214l1.297 6.89L11.236.282h3.232zM27.226 8.3c.014-3.141-4.345-3.314-4.315-4.719.01-.426.417-.882 1.306-.996a5.8 5.8 0 013.037.529l.541-2.52a8.31 8.31 0 00-2.88-.53c-3.036 0-5.188 1.619-5.206 3.936-.02 1.711 1.53 2.67 2.7 3.241 1.198.582 1.6.956 1.588 1.479 0 .799-.959 1.15-1.844 1.164-1.548.025-2.448-.418-3.164-.752l-.55 2.608c.72.332 2.048.62 3.424.634 3.236 0 5.352-1.599 5.363-4.074zm8.038 3.881h2.848L35.626.283h-2.63a1.412 1.412 0 00-1.312.873l-4.619 11.032h3.234l.643-1.779h3.95l.372 1.774zM31.827 7.97l1.622-4.471.933 4.47h-2.555zM18.88.282l-2.555 11.905h-3.081L15.792.282h3.088z" fill="url(#paint0_linear)"/><defs><linearGradient id="paint0_linear" x1="0" y1="6.219" x2="38.112" y2="6.219" gradientUnits="userSpaceOnUse"><stop stop-color="#231F5C"/><stop offset="1" stop-color="#034EA2"/></linearGradient></defs></svg>